<svg width="1096" height="576" viewBox="0 0 1096 576" fill="none" xmlns="http://www.w3.org/2000/svg">
<rect x="246" y="21" width="586" height="313" fill="#DB5600"/>
<path d="M417 119V110H408V101H426V110H453V56H471V110H462V119H417ZM489 119V110H480V83H489V74H534V83H543V110H534V119H489ZM498 110H525V83H498V110ZM552 119V110H597V101H561V92H552V83H561V74H606V83H570V92H606V101H615V110H606V119H552ZM633 119V110H624V83H633V74H678V83H687V101H642V110H678V119H633ZM642 92H669V83H642V92ZM318 191V182H309V173H300V146H309V137H318V128H354V137H363V146H345V137H327V146H318V173H327V182H345V173H363V182H354V191H318ZM381 191V182H372V155H381V146H426V155H435V182H426V191H381ZM390 182H417V155H390V182ZM471 155H480V164H471V191H453V146H471V155ZM507 146V155H480V146H507ZM543 191V155H525V146H543V128H561V146H579V155H561V191H543ZM597 191V182H588V155H597V146H642V155H651V173H606V182H642V191H597ZM606 164H633V155H606V164ZM660 191V182H669V173H678V164H687V155H660V146H723V155H714V164H705V173H696V182H723V191H660ZM750 191V173H768V191H750Z" fill="#644026"/>
<path d="M408 112V103H399V94H417V103H444V49H462V103H453V112H408ZM480 112V103H471V76H480V67H525V76H534V103H525V112H480ZM489 103H516V76H489V103ZM543 112V103H588V94H552V85H543V76H552V67H597V76H561V85H597V94H606V103H597V112H543ZM624 112V103H615V76H624V67H669V76H678V94H633V103H669V112H624ZM633 85H660V76H633V85ZM309 184V175H300V166H291V139H300V130H309V121H345V130H354V139H336V130H318V139H309V166H318V175H336V166H354V175H345V184H309ZM372 184V175H363V148H372V139H417V148H426V175H417V184H372ZM381 175H408V148H381V175ZM462 148H471V157H462V184H444V139H462V148ZM498 139V148H471V139H498ZM534 184V148H516V139H534V121H552V139H570V148H552V184H534ZM588 184V175H579V148H588V139H633V148H642V166H597V175H633V184H588ZM597 157H624V148H597V157ZM651 184V175H660V166H669V157H678V148H651V139H714V148H705V157H696V166H687V175H714V184H651ZM741 184V166H759V184H741Z" fill="#E8D3C5"/>
<path d="M806 325V307H824V325H806Z" fill="#644026"/>
<path d="M797 318V300H815V318H797Z" fill="#E8D3C5"/>
<path d="M804 70V52H822V70H804Z" fill="#644026"/>
<path d="M795 63V45H813V63H795Z" fill="#E8D3C5"/>
<path d="M268 70V52H286V70H268Z" fill="#644026"/>
<path d="M259 63V45H277V63H259Z" fill="#E8D3C5"/>
<path d="M273 323V305H291V323H273Z" fill="#644026"/>
<path d="M264 316V298H282V316H264Z" fill="#E8D3C5"/>
</svg>
