<svg width="393" height="341" viewBox="0 0 393 341" fill="none" xmlns="http://www.w3.org/2000/svg">
<path fill-rule="evenodd" clip-rule="evenodd" d="M0 0H195C98.9025 0 21 76.3354 21 170.5C21 264.665 98.9025 341 195 341H0V0ZM196 340.997V341H195C195.196 341 195.392 341 195.588 340.999C195.725 340.999 195.863 340.998 196 340.997ZM196 0.00275655V340.997C196.334 340.995 196.667 340.993 197 340.989V341H393V0H197V0.0110312C196.667 0.00735491 196.334 0.00459589 196 0.00275655ZM196 0.00275655V0H195C195.334 0 195.667 0.000919665 196 0.00275655ZM197 0.0110312C292.176 1.0614 369 76.9896 369 170.5C369 264.01 292.176 339.939 197 340.989V0.0110312ZM116.844 230.703C114.125 230.703 111.453 230.141 108.828 229.016C106.203 227.984 103.859 226.484 101.797 224.516C99.7344 222.547 98.0938 220.109 96.875 217.203C95.6562 214.391 95.1406 211.156 95.3281 207.5C95.6094 201.125 96.875 195.219 99.125 189.781C101.375 184.344 104 179.656 107 175.719C110 171.781 113.047 168.734 116.141 166.578C119.234 164.328 121.812 163.203 123.875 163.203C125.188 163.203 126.359 163.672 127.391 164.609C128.516 165.453 129.359 166.578 129.922 167.984C130.578 169.297 130.953 170.797 131.047 172.484C131.234 174.078 131.047 175.625 130.484 177.125C129.547 176.469 127.812 176.703 125.281 177.828C122.75 178.953 120.125 180.875 117.406 183.594C114.688 186.219 112.25 189.5 110.094 193.438C107.938 197.375 106.719 201.781 106.438 206.656C106.25 209.844 106.391 212.562 106.859 214.812C107.422 217.062 108.172 218.891 109.109 220.297C110.141 221.703 111.266 222.734 112.484 223.391C113.797 224.047 115.156 224.375 116.562 224.375C119.938 224.375 123.031 223.109 125.844 220.578C128.656 218.047 131.234 214.484 133.578 209.891C135.922 205.391 138.125 200 140.188 193.719C142.25 187.344 144.219 180.312 146.094 172.625C146.656 170.281 147.359 167.375 148.203 163.906C149.141 160.438 150.125 156.688 151.156 152.656C152.188 148.531 153.266 144.312 154.391 140C155.609 135.594 156.734 131.422 157.766 127.484C158.797 123.453 159.781 119.75 160.719 116.375C161.656 112.906 162.406 110.094 162.969 107.938C159.875 107.938 156.781 108.125 153.688 108.5C151.062 108.781 148.344 109.203 145.531 109.766C142.719 110.234 140.375 110.891 138.5 111.734C138.312 111.641 138.172 111.406 138.078 111.031L137.797 109.625C137.703 109.062 137.609 108.453 137.516 107.797C137.422 107.047 137.422 106.297 137.516 105.547C137.609 104.891 137.703 104.188 137.797 103.438C137.891 102.594 138.078 101.75 138.359 100.906C140.797 100.156 143.609 99.5938 146.797 99.2188C150.078 98.75 153.125 98.4219 155.938 98.2344C159.219 97.9531 162.594 97.8125 166.062 97.8125C168.594 97.8125 171.219 97.9531 173.938 98.2344C176.281 98.4219 178.906 98.7031 181.812 99.0781C184.719 99.4531 187.625 100.016 190.531 100.766C191.188 101.422 191.609 102.172 191.797 103.016C191.891 103.391 191.938 103.812 191.938 104.281C191.938 105.031 191.797 105.734 191.516 106.391C191.328 106.953 191 107.562 190.531 108.219C190.156 108.781 189.641 109.25 188.984 109.625C187.953 109.344 186.641 109.156 185.047 109.062L180.547 108.5C178.859 108.312 177.078 108.172 175.203 108.078L160.297 174.453C159.922 176.047 159.266 178.578 158.328 182.047C157.391 185.422 156.078 189.219 154.391 193.438C152.797 197.562 150.828 201.828 148.484 206.234C146.234 210.641 143.562 214.625 140.469 218.188C137.375 221.844 133.859 224.844 129.922 227.188C125.984 229.531 121.625 230.703 116.844 230.703ZM222.438 225.781C226.281 228.031 230.547 229.156 235.234 229.156C238.984 229.156 242.547 228.359 245.922 226.766C249.297 225.172 252.391 223.062 255.203 220.438C258.109 217.906 260.688 215.047 262.938 211.859C265.281 208.672 267.25 205.484 268.844 202.297C269.406 201.078 269.594 200.047 269.406 199.203C269.219 198.266 268.844 197.609 268.281 197.234C267.719 196.766 267.062 196.672 266.312 196.953C265.562 197.234 264.859 197.984 264.203 199.203C263.266 200.891 261.906 202.812 260.125 204.969C258.438 207.219 256.375 209.375 253.938 211.438C251.594 213.5 248.969 215.234 246.062 216.641C243.156 218.047 240.062 218.75 236.781 218.75C234.719 218.75 232.656 218.234 230.594 217.203C228.531 216.172 226.656 214.484 224.969 212.141C223.375 209.797 222.109 206.797 221.172 203.141C220.328 199.484 220 195.031 220.188 189.781C220.656 178.156 222.297 167.141 225.109 156.734C228.016 146.328 231.531 137.234 235.656 129.453C239.875 121.578 244.422 115.344 249.297 110.75C254.172 106.156 258.812 103.859 263.219 103.859C265.469 103.859 267.484 104.75 269.266 106.531C271.047 108.312 271.844 111.125 271.656 114.969C271.375 118.906 270.812 122.469 269.969 125.656C269.219 128.469 268.094 131.188 266.594 133.812C265.188 136.344 263.219 138.125 260.688 139.156C261.531 141.312 262.422 142.953 263.359 144.078C264.391 145.203 265.375 146.047 266.312 146.609C267.344 147.266 268.422 147.641 269.547 147.734C271.891 147.734 273.953 147.078 275.734 145.766C277.609 144.359 279.156 142.531 280.375 140.281C281.688 137.938 282.672 135.312 283.328 132.406C284.078 129.5 284.547 126.5 284.734 123.406C284.828 120.125 284.547 116.891 283.891 113.703C283.234 110.516 282.062 107.656 280.375 105.125C278.781 102.594 276.625 100.578 273.906 99.0781C271.281 97.4844 268.047 96.6875 264.203 96.6875C257.922 96.6875 252.156 98.1406 246.906 101.047C241.656 103.859 236.875 107.609 232.562 112.297C228.25 116.984 224.406 122.422 221.031 128.609C217.75 134.703 214.938 141.078 212.594 147.734C210.25 154.297 208.422 160.859 207.109 167.422C205.891 173.984 205.188 180.078 205 185.703C204.812 191.703 205.375 197.375 206.688 202.719C208.094 207.969 210.109 212.562 212.734 216.5C215.453 220.438 218.688 223.531 222.438 225.781Z" fill="black"/>
</svg>
