<svg width="71" height="69" viewBox="0 0 71 69" fill="none" xmlns="http://www.w3.org/2000/svg">
<path d="M35.5003 0C15.8966 0 0 15.8166 0 35.3283C0 50.9373 10.1719 64.1798 24.2773 68.8512C26.0515 69.1782 26.7028 68.0848 26.7028 67.1517C26.7028 66.3093 26.6699 63.5263 26.6546 60.5743C16.7784 62.7114 14.6944 56.406 14.6944 56.406C13.0795 52.3226 10.7527 51.2368 10.7527 51.2368C7.53179 49.0441 10.9955 49.0892 10.9955 49.0892C14.5604 49.3384 16.4374 52.7298 16.4374 52.7298C19.6037 58.1307 24.7423 56.5693 26.7681 55.6666C27.0867 53.3832 28.0067 51.8247 29.022 50.9425C21.1369 50.0492 12.8479 47.02 12.8479 33.4831C12.8479 29.6261 14.2347 26.4746 16.5056 24.0005C16.137 23.1107 14.9219 19.5175 16.8495 14.6513C16.8495 14.6513 19.8306 13.7018 26.6146 18.2726C29.4464 17.4898 32.4833 17.0973 35.5003 17.0838C38.5172 17.0973 41.5565 17.4898 44.3936 18.2726C51.1694 13.7018 54.1464 14.6513 54.1464 14.6513C56.0787 19.5175 54.863 23.1107 54.4944 24.0005C56.7706 26.4746 58.148 29.6261 58.148 33.4831C58.148 47.0521 49.8431 50.0398 41.9381 50.9144C43.2114 52.0108 44.346 54.1607 44.346 57.4567C44.346 62.1837 44.3048 65.9881 44.3048 67.1517C44.3048 68.0919 44.9438 69.1934 46.7433 68.8465C60.841 64.1699 71 50.932 71 35.3283C71 15.8166 55.1058 0 35.5003 0ZM13.296 50.3259C13.2178 50.5014 12.9404 50.5541 12.6876 50.4335C12.4301 50.3183 12.2855 50.079 12.3689 49.9029C12.4454 49.7222 12.7234 49.6718 12.9803 49.7929C13.2384 49.9082 13.3854 50.1498 13.296 50.3259ZM15.0422 51.8765C14.8729 52.0327 14.542 51.9601 14.3174 51.7133C14.0852 51.467 14.0417 51.1376 14.2133 50.9791C14.3879 50.8229 14.7089 50.896 14.9417 51.1423C15.1739 51.3915 15.2192 51.7185 15.0422 51.8765ZM16.2402 53.8604C16.0227 54.0107 15.667 53.8698 15.4472 53.5556C15.2297 53.2414 15.2297 52.8647 15.4519 52.7137C15.6723 52.5628 16.0227 52.6985 16.2455 53.0104C16.4624 53.3298 16.4624 53.7065 16.2402 53.8604ZM18.2662 56.158C18.0717 56.3716 17.6572 56.3142 17.3539 56.0229C17.0435 55.738 16.9571 55.3337 17.1522 55.1202C17.3492 54.9061 17.766 54.9664 18.0717 55.2554C18.3797 55.5397 18.4738 55.9468 18.2662 56.158ZM20.8847 56.9337C20.7989 57.2104 20.3997 57.3362 19.9976 57.2186C19.5961 57.0975 19.3333 56.7734 19.4144 56.4938C19.4979 56.2153 19.8988 56.0843 20.3039 56.21C20.7048 56.3305 20.9682 56.6523 20.8847 56.9337ZM23.8646 57.2627C23.8746 57.5541 23.5336 57.7957 23.1115 57.8009C22.6871 57.8103 22.3438 57.5745 22.3391 57.2879C22.3391 56.9936 22.6724 56.7543 23.0968 56.7473C23.5189 56.7391 23.8646 56.9731 23.8646 57.2627ZM26.792 57.151C26.8426 57.4354 26.5492 57.7273 26.1301 57.8051C25.718 57.88 25.3364 57.7045 25.2841 57.4225C25.233 57.1312 25.5316 56.8392 25.9431 56.7638C26.3629 56.6912 26.7385 56.862 26.792 57.151Z" fill="#161614"/>
</svg>
