<svg width="141" height="36" viewBox="0 0 141 36" fill="none" xmlns="http://www.w3.org/2000/svg">
<path d="M0 5.30664H5.5042V25.468H15.6966V30.5752H0V5.30664Z" fill="#1A1918"/>
<path d="M20.7729 4.93213C22.4671 4.93213 23.8422 6.31484 23.8422 8.017C23.8422 9.72191 22.4671 11.1014 20.7729 11.1014C19.0804 11.1014 17.7053 9.72191 17.7053 8.017C17.7053 6.31484 19.0804 4.93213 20.7729 4.93213ZM18.1273 13.4447H23.4184V30.5687H18.1273V13.4447Z" fill="#1A1918"/>
<path d="M26.3445 13.4471H31.4232V15.7876H31.4938C32.1986 14.4403 33.9272 13.0225 36.5019 13.0225C41.8634 13.0225 42.8509 16.5681 42.8509 21.1777V30.5691H37.56V22.2432C37.56 20.256 37.5236 17.7031 34.8077 17.7031C32.0573 17.7031 31.635 19.8675 31.635 22.1007V30.5691H26.3445V13.4471Z" fill="#1A1918"/>
<path d="M45.5341 5.30518H50.823V20.4071L56.8149 13.437H63.2994L56.3602 21.3652L63.1542 30.5752H56.5054L50.8921 22.1105H50.823V30.5752H45.5341V5.30518Z" fill="#1A1918"/>
<path d="M78.9136 27.6037C77.2191 29.7681 74.4353 31.0105 71.6829 31.0105C66.3936 31.0105 62.1608 27.4619 62.1608 21.9649C62.1608 16.468 66.3936 12.9224 71.6829 12.9224C76.6236 12.9224 79.7254 16.468 79.7254 21.9649V23.632H67.4517C67.872 25.6538 69.3905 26.9663 71.4366 26.9663C73.1655 26.9663 74.3285 26.0792 75.2107 24.8729L78.9136 27.6037ZM74.4353 20.0156C74.47 18.2419 73.0947 16.7525 71.1883 16.7525C68.8614 16.7525 67.5912 18.3486 67.4517 20.0156H74.4353Z" fill="#1A1918"/>
<path d="M99.8475 30.5658H94.9787V28.2952H94.9101C94.0963 29.5361 92.0526 30.9911 89.6534 30.9911C84.5729 30.9911 81.2229 27.304 81.2229 22.0896C81.2229 17.3008 84.1854 12.9032 89.0522 12.9032C91.2408 12.9032 93.2862 13.506 94.4858 15.1725H94.5552V5.30518H99.8475V30.5658ZM90.744 17.5851C88.1007 17.5851 86.514 19.36 86.514 21.9468C86.514 24.5385 88.1007 26.3095 90.744 26.3095C93.3918 26.3095 94.9787 24.5385 94.9787 21.9468C94.9787 19.36 93.3918 17.5851 90.744 17.5851Z" fill="#1A1918"/>
<path d="M138.181 0H107.772C106.319 0 105.138 1.1582 105.138 2.58626V33.293C105.138 34.7223 106.319 35.8822 107.772 35.8822H138.181C139.637 35.8822 140.823 34.7223 140.823 33.293V2.58626C140.823 1.1582 139.637 0 138.181 0Z" fill="black"/>
<path d="M113.076 4.93994C114.769 4.93994 116.144 6.32265 116.144 8.02482C116.144 9.72822 114.769 11.1114 113.076 11.1114C111.38 11.1114 110.007 9.72822 110.007 8.02482C110.007 6.32265 111.38 4.93994 113.076 4.93994ZM110.429 13.4523H115.722V30.5763H110.429V13.4523Z" fill="white"/>
<path d="M119.041 13.4525H124.118V15.792H124.189C124.895 14.446 126.622 13.0264 129.196 13.0264C134.556 13.0264 135.545 16.573 135.545 21.1836V30.5765H130.257V22.2491C130.257 20.2624 130.22 17.7083 127.506 17.7083C124.752 17.7083 124.33 19.8717 124.33 22.1053V30.5765H119.041V13.4525Z" fill="white"/>
</svg>
