<svg width="70" height="70" viewBox="0 0 70 70" fill="none" xmlns="http://www.w3.org/2000/svg">
<g clip-path="url(#clip0)">
<path d="M66.1366 70.0003C68.27 70.0003 70 68.2705 70 66.1369V3.8634C70 1.72949 68.27 0 66.1366 0H3.8634C1.72922 0 0 1.72949 0 3.8634V66.1369C0 68.2705 1.72922 70.0003 3.8634 70.0003H66.1366Z" fill="#090909"/>
<path d="M48.2987 70.0001V42.8923H57.3978L58.7601 32.328H48.2987V25.5829C48.2987 22.5242 49.1482 20.4398 53.5344 20.4398L59.1287 20.4373V10.9887C58.1607 10.8599 54.8401 10.5723 50.977 10.5723C42.9111 10.5723 37.3893 15.4955 37.3893 24.537V32.328H28.2669V42.8923H37.3893V70.0001H48.2987Z" fill="white"/>
</g>
<defs>
<clipPath id="clip0">
<rect width="70" height="70" fill="white"/>
</clipPath>
</defs>
</svg>
