<svg width="400" height="300" viewBox="0 0 400 300" fill="none" xmlns="http://www.w3.org/2000/svg">
<rect width="400" height="300" fill="white"/>
<rect width="400" height="300" fill="url(#paint0_linear)"/>
<path d="M173.816 127.968L193.256 168.144C194.072 169.776 194.48 171 194.48 171.816C194.48 173.544 193.088 175.104 190.304 176.496C188.672 177.312 187.376 177.72 186.416 177.72C185.504 177.72 184.736 177.504 184.112 177.072C183.536 176.64 183.104 176.184 182.816 175.704C182.576 175.224 182.216 174.504 181.736 173.544L177.992 165.768H158.048L154.304 173.544C153.824 174.504 153.44 175.2 153.152 175.632C152.912 176.064 152.48 176.52 151.856 177C151.28 177.432 150.512 177.648 149.552 177.648C148.64 177.648 147.368 177.24 145.736 176.424C142.952 175.08 141.56 173.544 141.56 171.816C141.56 171 141.968 169.776 142.784 168.144L162.224 127.896C162.752 126.792 163.544 125.904 164.6 125.232C165.704 124.56 166.856 124.224 168.056 124.224C170.648 124.224 172.568 125.472 173.816 127.968ZM167.984 145.248L163.232 155.112H172.808L167.984 145.248ZM237.367 134.88C238.615 137.424 239.239 140.256 239.239 143.376C239.239 146.496 238.615 149.328 237.367 151.872C236.119 154.368 234.511 156.36 232.543 157.848C228.559 160.92 224.431 162.456 220.159 162.456H211.159V170.592C211.159 171.696 211.111 172.536 211.015 173.112C210.967 173.64 210.751 174.264 210.367 174.984C209.695 176.28 207.823 176.928 204.751 176.928C201.391 176.928 199.423 176.04 198.847 174.264C198.559 173.448 198.415 172.2 198.415 170.52V130.56C198.415 129.456 198.439 128.64 198.487 128.112C198.583 127.536 198.823 126.888 199.207 126.168C199.879 124.872 201.751 124.224 204.823 124.224H220.231C224.455 124.224 228.559 125.76 232.543 128.832C234.511 130.32 236.119 132.336 237.367 134.88ZM220.231 149.712C221.671 149.712 223.087 149.184 224.479 148.128C225.871 147.072 226.567 145.488 226.567 143.376C226.567 141.264 225.871 139.68 224.479 138.624C223.087 137.52 221.647 136.968 220.159 136.968H211.159V149.712H220.231ZM243.907 130.56C243.907 129.456 243.931 128.64 243.979 128.112C244.075 127.536 244.315 126.888 244.699 126.168C245.371 124.872 247.243 124.224 250.315 124.224C253.675 124.224 255.667 125.112 256.291 126.888C256.531 127.704 256.651 128.952 256.651 130.632V170.664C256.651 171.816 256.603 172.656 256.507 173.184C256.459 173.712 256.243 174.336 255.859 175.056C255.187 176.352 253.315 177 250.243 177C246.883 177 244.915 176.088 244.339 174.264C244.051 173.496 243.907 172.272 243.907 170.592V130.56Z" fill="url(#paint1_linear)"/>
<defs>
<linearGradient id="paint0_linear" x1="0" y1="0" x2="394" y2="300" gradientUnits="userSpaceOnUse">
<stop stop-color="#DDE117"/>
<stop offset="0.161458" stop-color="#17E1D5"/>
<stop offset="0.677083" stop-color="#E1B517" stop-opacity="0.37"/>
<stop offset="1" stop-color="#E11717"/>
</linearGradient>
<linearGradient id="paint1_linear" x1="3.16695e-05" y1="0.999945" x2="399" y2="298" gradientUnits="userSpaceOnUse">
<stop offset="0.338542" stop-color="#2817E1"/>
<stop offset="1" stop-color="white" stop-opacity="0"/>
</linearGradient>
</defs>
</svg>
