<svg width="400" height="300" viewBox="0 0 400 300" fill="none" xmlns="http://www.w3.org/2000/svg">
<rect width="400" height="300" fill="white"/>
<rect width="400" height="300" fill="url(#paint0_linear)"/>
<path d="M72.624 157.256H94.8C95.904 157.256 96.72 157.304 97.248 157.4C97.824 157.448 98.472 157.664 99.192 158.048C100.488 158.72 101.136 160.592 101.136 163.664C101.136 167.024 100.248 168.992 98.472 169.568C97.656 169.856 96.408 170 94.728 170H66.216C62.856 170 60.888 169.088 60.312 167.264C60.024 166.496 59.88 165.272 59.88 163.592V123.56C59.88 121.112 60.336 119.456 61.248 118.592C62.16 117.68 63.888 117.224 66.432 117.224H94.8C95.904 117.224 96.72 117.272 97.248 117.368C97.824 117.416 98.472 117.632 99.192 118.016C100.488 118.688 101.136 120.56 101.136 123.632C101.136 126.992 100.248 128.96 98.472 129.536C97.656 129.824 96.408 129.968 94.728 129.968H72.624V137.24H86.88C87.984 137.24 88.8 137.288 89.328 137.384C89.904 137.432 90.552 137.648 91.272 138.032C92.568 138.704 93.216 140.576 93.216 143.648C93.216 147.008 92.304 148.976 90.48 149.552C89.664 149.84 88.416 149.984 86.736 149.984H72.624V157.256ZM161.882 119.24C162.266 119.96 162.482 120.608 162.53 121.184C162.626 121.76 162.674 122.6 162.674 123.704V163.664C162.674 166.976 161.762 168.92 159.938 169.496C159.026 169.784 157.874 169.928 156.482 169.928C155.09 169.928 153.986 169.808 153.17 169.568C152.354 169.328 151.73 169.04 151.298 168.704C150.866 168.368 150.53 167.888 150.29 167.264C150.05 166.448 149.93 165.2 149.93 163.52V139.4C148.73 140.888 146.978 143.264 144.674 146.528C142.37 149.744 140.906 151.76 140.282 152.576C139.658 153.392 139.226 153.968 138.986 154.304C138.746 154.592 138.146 155.024 137.186 155.6C136.274 156.128 135.266 156.392 134.162 156.392C133.106 156.392 132.122 156.152 131.21 155.672C130.346 155.144 129.722 154.64 129.338 154.16L128.762 153.368C127.802 152.168 125.906 149.624 123.074 145.736C120.242 141.8 118.706 139.688 118.466 139.4V163.664C118.466 164.768 118.418 165.608 118.322 166.184C118.274 166.712 118.058 167.312 117.674 167.984C116.954 169.28 115.082 169.928 112.058 169.928C109.13 169.928 107.306 169.28 106.586 167.984C106.202 167.312 105.962 166.688 105.866 166.112C105.818 165.536 105.794 164.672 105.794 163.52V123.56C105.794 122.456 105.818 121.64 105.866 121.112C105.962 120.536 106.202 119.888 106.586 119.168C107.306 117.92 109.178 117.296 112.202 117.296C113.498 117.296 114.602 117.464 115.514 117.8C116.474 118.088 117.098 118.4 117.386 118.736L117.818 119.168L134.162 140.624C142.322 129.824 147.77 122.696 150.506 119.24C151.322 117.944 153.242 117.296 156.266 117.296C159.338 117.296 161.21 117.944 161.882 119.24ZM207.395 127.88C208.643 130.424 209.267 133.256 209.267 136.376C209.267 139.496 208.643 142.328 207.395 144.872C206.147 147.368 204.539 149.36 202.57 150.848C198.587 153.92 194.459 155.456 190.187 155.456H181.187V163.592C181.187 164.696 181.139 165.536 181.043 166.112C180.995 166.64 180.779 167.264 180.395 167.984C179.723 169.28 177.851 169.928 174.779 169.928C171.419 169.928 169.451 169.04 168.875 167.264C168.587 166.448 168.443 165.2 168.443 163.52V123.56C168.443 122.456 168.467 121.64 168.515 121.112C168.611 120.536 168.851 119.888 169.235 119.168C169.907 117.872 171.779 117.224 174.851 117.224H190.259C194.483 117.224 198.587 118.76 202.57 121.832C204.539 123.32 206.147 125.336 207.395 127.88ZM190.259 142.712C191.699 142.712 193.115 142.184 194.507 141.128C195.899 140.072 196.595 138.488 196.595 136.376C196.595 134.264 195.899 132.68 194.507 131.624C193.115 130.52 191.675 129.968 190.187 129.968H181.187V142.712H190.259ZM214.367 117.152H254.399C255.935 117.152 257.063 117.344 257.783 117.728C258.503 118.064 258.983 118.616 259.223 119.384C259.463 120.152 259.583 121.16 259.583 122.408C259.583 123.656 259.463 124.664 259.223 125.432C258.983 126.152 258.575 126.656 257.999 126.944C257.135 127.376 255.911 127.592 254.327 127.592H240.575V163.808C240.575 164.912 240.527 165.728 240.431 166.256C240.383 166.784 240.167 167.408 239.783 168.128C239.447 168.8 238.823 169.28 237.911 169.568C236.999 169.856 235.799 170 234.311 170C232.823 170 231.623 169.856 230.711 169.568C229.847 169.28 229.223 168.8 228.839 168.128C228.503 167.408 228.287 166.784 228.191 166.256C228.143 165.68 228.119 164.84 228.119 163.736V127.592H214.295C212.759 127.592 211.631 127.424 210.911 127.088C210.191 126.704 209.711 126.128 209.471 125.36C209.231 124.592 209.111 123.584 209.111 122.336C209.111 121.088 209.231 120.104 209.471 119.384C209.711 118.616 210.119 118.088 210.695 117.8C211.559 117.368 212.783 117.152 214.367 117.152ZM305.479 118.232C307.831 119.864 309.007 121.448 309.007 122.984C309.007 123.896 308.455 125.168 307.351 126.8L291.799 150.056V163.808C291.799 164.912 291.751 165.752 291.655 166.328C291.607 166.856 291.391 167.48 291.007 168.2C290.623 168.92 289.975 169.424 289.063 169.712C288.151 170 286.927 170.144 285.391 170.144C283.855 170.144 282.631 170 281.719 169.712C280.807 169.424 280.159 168.92 279.775 168.2C279.391 167.432 279.151 166.784 279.055 166.256C279.007 165.68 278.983 164.816 278.983 163.664V150.056L263.431 126.8C262.327 125.168 261.775 123.896 261.775 122.984C261.775 121.448 262.831 119.984 264.943 118.592C267.055 117.152 268.567 116.432 269.479 116.432C270.391 116.432 271.111 116.624 271.639 117.008C272.455 117.536 273.319 118.52 274.231 119.96L285.391 137.816L296.551 119.96C297.463 118.52 298.255 117.584 298.927 117.152C299.599 116.672 300.367 116.432 301.231 116.432C302.143 116.432 303.559 117.032 305.479 118.232Z" fill="url(#paint1_linear)"/>
<defs>
<linearGradient id="paint0_linear" x1="0" y1="0" x2="394" y2="300" gradientUnits="userSpaceOnUse">
<stop stop-color="#DDE117"/>
<stop offset="0.161458" stop-color="#17E1D5"/>
<stop offset="0.677083" stop-color="#E1B517" stop-opacity="0.37"/>
<stop offset="1" stop-color="#E11717"/>
</linearGradient>
<linearGradient id="paint1_linear" x1="3.16695e-05" y1="0.999945" x2="399" y2="298" gradientUnits="userSpaceOnUse">
<stop offset="0.338542" stop-color="#2817E1"/>
<stop offset="1" stop-color="white" stop-opacity="0"/>
</linearGradient>
</defs>
</svg>
